<svg width="70" height="70" viewBox="0 0 70 70" fill="none" xmlns="http://www.w3.org/2000/svg">
<path d="M51.8131 18.1869C51.5084 17.882 51.1466 17.6401 50.7484 17.4751C50.3501 17.31 49.9233 17.2251 49.4922 17.2251C49.0611 17.2251 48.6343 17.31 48.236 17.4751C47.8378 17.6401 47.476 17.882 47.1713 18.1869L35 30.3625L22.8287 18.1891C22.2132 17.5735 21.3783 17.2277 20.5078 17.2277C19.6373 17.2277 18.8024 17.5735 18.1869 18.1891C17.5713 18.8046 17.2255 19.6395 17.2255 20.51C17.2255 21.3805 17.5713 22.2154 18.1869 22.831L30.3625 35L18.1891 47.1713C17.8843 47.4761 17.6425 47.8379 17.4775 48.2361C17.3126 48.6344 17.2277 49.0612 17.2277 49.4922C17.2277 50.3627 17.5735 51.1976 18.1891 51.8131C18.8046 52.4287 19.6395 52.7745 20.51 52.7745C21.3805 52.7745 22.2154 52.4287 22.8309 51.8131L35 39.6375L47.1713 51.811C47.7868 52.4265 48.6217 52.7723 49.4922 52.7723C50.3627 52.7723 51.1976 52.4265 51.8131 51.811C52.4287 51.1954 52.7745 50.3605 52.7745 49.49C52.7745 48.6195 52.4287 47.7846 51.8131 47.1691L39.6375 35L51.8109 22.8288C52.1159 22.5241 52.3577 22.1622 52.5228 21.764C52.6878 21.3658 52.7727 20.9389 52.7727 20.5078C52.7727 20.0768 52.6878 19.6499 52.5228 19.2517C52.3577 18.8534 52.1159 18.4916 51.8109 18.1869H51.8131Z" fill="#F7BCBC"/>
<path d="M13.125 2.1875C11.6887 2.1875 10.2664 2.47041 8.9394 3.02007C7.6124 3.56973 6.40666 4.37538 5.39102 5.39102C3.33984 7.4422 2.1875 10.2242 2.1875 13.125V56.875C2.1875 59.7758 3.33984 62.5578 5.39102 64.609C6.40666 65.6246 7.6124 66.4303 8.9394 66.9799C10.2664 67.5296 11.6887 67.8125 13.125 67.8125H56.875C59.7758 67.8125 62.5578 66.6602 64.609 64.609C66.6602 62.5578 67.8125 59.7758 67.8125 56.875V13.125C67.8125 11.6887 67.5296 10.2664 66.9799 8.9394C66.4303 7.6124 65.6246 6.40666 64.609 5.39102C63.5933 4.37538 62.3876 3.56973 61.0606 3.02007C59.7336 2.47041 58.3113 2.1875 56.875 2.1875H13.125ZM6.5625 13.125C6.5625 11.3845 7.2539 9.71532 8.48461 8.48461C9.71532 7.2539 11.3845 6.5625 13.125 6.5625H56.875C58.6155 6.5625 60.2847 7.2539 61.5154 8.48461C62.7461 9.71532 63.4375 11.3845 63.4375 13.125V56.875C63.4375 58.6155 62.7461 60.2847 61.5154 61.5154C60.2847 62.7461 58.6155 63.4375 56.875 63.4375H13.125C11.3845 63.4375 9.71532 62.7461 8.48461 61.5154C7.2539 60.2847 6.5625 58.6155 6.5625 56.875V13.125Z" fill="#F7BCBC"/>
</svg>
