<svg width="36" height="36" viewBox="0 0 36 36" fill="none" xmlns="http://www.w3.org/2000/svg">
<path d="M20 10V2.00001C20 1.43334 20.192 0.958006 20.576 0.574007C20.96 0.190007 21.4347 -0.00132641 22 6.92042e-06H34C34.5667 6.92042e-06 35.042 0.192007 35.426 0.576007C35.81 0.960007 36.0013 1.43467 36 2.00001V10C36 10.5667 35.808 11.042 35.424 11.426C35.04 11.81 34.5653 12.0013 34 12H22C21.4333 12 20.958 11.808 20.574 11.424C20.19 11.04 19.9987 10.5653 20 10ZM6.92042e-06 18V2.00001C6.92042e-06 1.43334 0.192007 0.958006 0.576007 0.574007C0.960007 0.190007 1.43467 -0.00132641 2.00001 6.92042e-06H14C14.5667 6.92042e-06 15.042 0.192007 15.426 0.576007C15.81 0.960007 16.0013 1.43467 16 2.00001V18C16 18.5667 15.808 19.042 15.424 19.426C15.04 19.81 14.5653 20.0013 14 20H2.00001C1.43334 20 0.958006 19.808 0.574007 19.424C0.190007 19.04 -0.00132641 18.5653 6.92042e-06 18ZM20 34V18C20 17.4333 20.192 16.958 20.576 16.574C20.96 16.19 21.4347 15.9987 22 16H34C34.5667 16 35.042 16.192 35.426 16.576C35.81 16.96 36.0013 17.4347 36 18V34C36 34.5667 35.808 35.042 35.424 35.426C35.04 35.81 34.5653 36.0013 34 36H22C21.4333 36 20.958 35.808 20.574 35.424C20.19 35.04 19.9987 34.5653 20 34ZM6.92042e-06 34V26C6.92042e-06 25.4333 0.192007 24.958 0.576007 24.574C0.960007 24.19 1.43467 23.9987 2.00001 24H14C14.5667 24 15.042 24.192 15.426 24.576C15.81 24.96 16.0013 25.4347 16 26V34C16 34.5667 15.808 35.042 15.424 35.426C15.04 35.81 14.5653 36.0013 14 36H2.00001C1.43334 36 0.958006 35.808 0.574007 35.424C0.190007 35.04 -0.00132641 34.5653 6.92042e-06 34Z" fill="#D1D5DB"/>
</svg>
