<svg width="50" height="57" viewBox="0 0 50 57" fill="none" xmlns="http://www.w3.org/2000/svg">
<path d="M37.5318 7H7.80666C6.8089 7 6 7.8066 6 8.80153V42.5518L6.00167 42.5535C6.03747 46.1338 8.95782 49.0255 12.5568 49.0255H37.5318C38.5296 49.0255 39.3385 48.2189 39.3385 47.2239V8.80153C39.3385 7.80652 38.5297 7 37.5318 7Z" fill="#00C1A3"/>
<path d="M25.7035 13.3399H10.1689C9.99358 13.3399 9.82543 13.2705 9.70145 13.1469C9.57746 13.0232 9.50781 12.8555 9.50781 12.6807C9.50781 12.5059 9.57746 12.3382 9.70145 12.2146C9.82543 12.0909 9.99358 12.0215 10.1689 12.0215H25.7035C25.8789 12.0215 26.047 12.0909 26.171 12.2146C26.295 12.3382 26.3646 12.5059 26.3646 12.6807C26.3646 12.8555 26.295 13.0232 26.171 13.1469C26.047 13.2705 25.8789 13.3399 25.7035 13.3399ZM23.9808 17.2174C23.9808 17.0426 23.9112 16.8749 23.7872 16.7513C23.6632 16.6276 23.4951 16.5582 23.3197 16.5582H10.1689C9.99358 16.5582 9.82543 16.6276 9.70145 16.7513C9.57746 16.8749 9.50781 17.0426 9.50781 17.2174C9.50781 17.3922 9.57746 17.5599 9.70145 17.6835C9.82543 17.8072 9.99358 17.8766 10.1689 17.8766H23.3198C23.4066 17.8766 23.4926 17.8596 23.5728 17.8264C23.653 17.7933 23.7259 17.7448 23.7873 17.6835C23.8486 17.6223 23.8973 17.5496 23.9305 17.4697C23.9638 17.3897 23.9808 17.304 23.9808 17.2174ZM34.2913 21.7541C34.2913 21.5792 34.2217 21.4116 34.0977 21.2879C33.9737 21.1643 33.8056 21.0949 33.6302 21.0949H10.1689C9.99358 21.0949 9.82543 21.1643 9.70145 21.2879C9.57746 21.4116 9.50781 21.5792 9.50781 21.7541C9.50781 21.9289 9.57746 22.0966 9.70145 22.2202C9.82543 22.3439 9.99358 22.4133 10.1689 22.4133H33.6303C33.8056 22.4133 33.9738 22.3438 34.0977 22.2202C34.2217 22.0966 34.2913 21.9289 34.2913 21.7541ZM32.8191 26.2907C32.8191 26.1158 32.7494 25.9482 32.6254 25.8245C32.5015 25.7009 32.3333 25.6315 32.158 25.6315H10.1689C9.99358 25.6315 9.82543 25.7009 9.70145 25.8245C9.57746 25.9482 9.50781 26.1158 9.50781 26.2907C9.50781 26.4655 9.57746 26.6332 9.70145 26.7568C9.82543 26.8805 9.99358 26.9499 10.1689 26.9499H32.158C32.3333 26.9499 32.5015 26.8805 32.6254 26.7568C32.7494 26.6332 32.8191 26.4655 32.8191 26.2907ZM23.9808 30.8274C23.9808 30.6525 23.9112 30.4849 23.7872 30.3612C23.6632 30.2376 23.4951 30.1681 23.3197 30.1681H10.1689C9.99358 30.1681 9.82543 30.2376 9.70145 30.3612C9.57746 30.4849 9.50781 30.6525 9.50781 30.8274C9.50781 31.0022 9.57746 31.1699 9.70145 31.2935C9.82543 31.4171 9.99358 31.4866 10.1689 31.4866H23.3198C23.4066 31.4866 23.4926 31.4696 23.5728 31.4364C23.653 31.4033 23.7259 31.3548 23.7873 31.2935C23.8487 31.2323 23.8974 31.1596 23.9306 31.0797C23.9638 30.9997 23.9809 30.9139 23.9808 30.8274ZM34.2913 35.3641C34.2913 35.1892 34.2217 35.0215 34.0977 34.8979C33.9737 34.7743 33.8056 34.7048 33.6302 34.7048H10.1689C9.99358 34.7048 9.82543 34.7743 9.70145 34.8979C9.57746 35.0215 9.50781 35.1892 9.50781 35.3641C9.50781 35.5389 9.57746 35.7066 9.70145 35.8302C9.82543 35.9538 9.99358 36.0233 10.1689 36.0233H33.6303C33.8056 36.0233 33.9738 35.9538 34.0977 35.8302C34.2217 35.7065 34.2913 35.5389 34.2913 35.3641ZM34.2913 39.9007C34.2913 39.7259 34.2217 39.5582 34.0977 39.4346C33.9737 39.311 33.8056 39.2415 33.6302 39.2415H10.1689C9.99358 39.2415 9.82543 39.311 9.70145 39.4346C9.57746 39.5582 9.50781 39.7259 9.50781 39.9007C9.50781 40.0756 9.57746 40.2433 9.70145 40.3669C9.82543 40.4905 9.99358 40.56 10.1689 40.56H33.6303C33.8056 40.56 33.9738 40.4905 34.0977 40.3669C34.2217 40.2432 34.2913 40.0756 34.2913 39.9007ZM34.2913 44.4373C34.2913 44.2625 34.2217 44.0948 34.0977 43.9712C33.9737 43.8476 33.8056 43.7781 33.6302 43.7781H10.1689C9.99358 43.7781 9.82543 43.8476 9.70145 43.9712C9.57746 44.0948 9.50781 44.2625 9.50781 44.4373C9.50781 44.6122 9.57746 44.7799 9.70145 44.9035C9.82543 45.0271 9.99358 45.0966 10.1689 45.0966H33.6303C33.8056 45.0966 33.9738 45.0271 34.0977 44.9035C34.2217 44.7798 34.2913 44.6122 34.2913 44.4373Z" fill="#ECFFFC"/>
<path d="M19.1134 37.9668V42.4876C19.1134 46.0985 16.1778 49.0257 12.5566 49.0257H37.5317L37.5717 48.9665C37.857 49.0043 38.1475 49.0257 38.4432 49.0257C42.0643 49.0257 44.9999 46.0985 44.9999 42.4876V37.9668H19.1134Z" fill="#90969B"/>
<rect x="2" y="2" width="46" height="52.25" rx="4" stroke="#00C1A3" stroke-width="4"/>
</svg>
