<svg width="50" height="57" viewBox="0 0 50 57" fill="none" xmlns="http://www.w3.org/2000/svg">
<path d="M37.5321 7H7.80668C6.80891 7 6 7.80661 6 8.80154V42.5521L6.00167 42.5538C6.03747 46.1341 8.95785 49.0258 12.5568 49.0258H37.5321C38.5299 49.0258 39.3388 48.2192 39.3388 47.2243V8.80154C39.3388 7.80652 38.53 7 37.5321 7Z" fill="#D1D5DB"/>
<path d="M25.7037 13.3399H10.1689C9.99358 13.3399 9.82543 13.2705 9.70145 13.1469C9.57746 13.0232 9.50781 12.8556 9.50781 12.6807C9.50781 12.5059 9.57746 12.3382 9.70145 12.2146C9.82543 12.0909 9.99358 12.0215 10.1689 12.0215H25.7037C25.879 12.0215 26.0472 12.0909 26.1711 12.2146C26.2951 12.3382 26.3648 12.5059 26.3648 12.6807C26.3648 12.8556 26.2951 13.0232 26.1711 13.1469C26.0472 13.2705 25.879 13.3399 25.7037 13.3399ZM23.981 17.2174C23.981 17.0426 23.9113 16.8749 23.7873 16.7513C23.6633 16.6277 23.4952 16.5582 23.3199 16.5582H10.1689C9.99358 16.5582 9.82543 16.6277 9.70145 16.7513C9.57746 16.8749 9.50781 17.0426 9.50781 17.2174C9.50781 17.3923 9.57746 17.56 9.70145 17.6836C9.82543 17.8072 9.99358 17.8767 10.1689 17.8767H23.3199C23.4067 17.8767 23.4927 17.8596 23.5729 17.8265C23.6531 17.7934 23.726 17.7448 23.7874 17.6836C23.8488 17.6224 23.8975 17.5497 23.9307 17.4697C23.9639 17.3897 23.981 17.304 23.981 17.2174ZM34.2916 21.7542C34.2916 21.5793 34.2219 21.4117 34.0979 21.288C33.9739 21.1644 33.8058 21.0949 33.6305 21.0949H10.1689C9.99358 21.0949 9.82543 21.1644 9.70145 21.288C9.57746 21.4117 9.50781 21.5793 9.50781 21.7542C9.50781 21.929 9.57746 22.0967 9.70145 22.2203C9.82543 22.344 9.99358 22.4134 10.1689 22.4134H33.6305C33.8059 22.4134 33.974 22.3439 34.098 22.2203C34.2219 22.0967 34.2916 21.929 34.2916 21.7542ZM32.8193 26.2908C32.8193 26.116 32.7496 25.9483 32.6257 25.8247C32.5017 25.701 32.3335 25.6316 32.1582 25.6316H10.1689C9.99358 25.6316 9.82543 25.701 9.70145 25.8247C9.57746 25.9483 9.50781 26.116 9.50781 26.2908C9.50781 26.4657 9.57746 26.6333 9.70145 26.757C9.82543 26.8806 9.99358 26.95 10.1689 26.95H32.1582C32.3335 26.95 32.5017 26.8806 32.6257 26.757C32.7496 26.6333 32.8193 26.4657 32.8193 26.2908ZM23.981 30.8275C23.981 30.6527 23.9113 30.485 23.7873 30.3614C23.6633 30.2378 23.4952 30.1683 23.3199 30.1683H10.1689C9.99358 30.1683 9.82543 30.2378 9.70145 30.3614C9.57746 30.485 9.50781 30.6527 9.50781 30.8275C9.50781 31.0024 9.57746 31.1701 9.70145 31.2937C9.82543 31.4173 9.99358 31.4868 10.1689 31.4868H23.3199C23.4068 31.4868 23.4927 31.4697 23.5729 31.4366C23.6531 31.4035 23.726 31.3549 23.7874 31.2937C23.8488 31.2325 23.8975 31.1598 23.9307 31.0798C23.9639 30.9998 23.981 30.9141 23.981 30.8275ZM34.2916 35.3643C34.2916 35.1894 34.2219 35.0218 34.0979 34.8981C33.9739 34.7745 33.8058 34.705 33.6305 34.705H10.1689C9.99358 34.705 9.82543 34.7745 9.70145 34.8981C9.57746 35.0218 9.50781 35.1894 9.50781 35.3643C9.50781 35.5391 9.57746 35.7068 9.70145 35.8304C9.82543 35.9541 9.99358 36.0235 10.1689 36.0235H33.6305C33.8059 36.0235 33.974 35.954 34.098 35.8304C34.2219 35.7068 34.2916 35.5391 34.2916 35.3643ZM34.2916 39.901C34.2916 39.7262 34.2219 39.5585 34.0979 39.4349C33.9739 39.3112 33.8058 39.2418 33.6305 39.2418H10.1689C9.99358 39.2418 9.82543 39.3112 9.70145 39.4349C9.57746 39.5585 9.50781 39.7262 9.50781 39.901C9.50781 40.0758 9.57746 40.2435 9.70145 40.3671C9.82543 40.4908 9.99358 40.5602 10.1689 40.5602H33.6305C33.8059 40.5602 33.974 40.4907 34.098 40.3671C34.2219 40.2435 34.2916 40.0758 34.2916 39.901ZM34.2916 44.4376C34.2916 44.2628 34.2219 44.0951 34.0979 43.9715C33.9739 43.8479 33.8058 43.7784 33.6305 43.7784H10.1689C9.99358 43.7784 9.82543 43.8479 9.70145 43.9715C9.57746 44.0951 9.50781 44.2628 9.50781 44.4376C9.50781 44.6125 9.57746 44.7802 9.70145 44.9038C9.82543 45.0274 9.99358 45.0969 10.1689 45.0969H33.6305C33.8059 45.0969 33.974 45.0274 34.098 44.9038C34.2219 44.7801 34.2916 44.6125 34.2916 44.4376Z" fill="#595E5D"/>
<path d="M19.1135 37.9688V42.4895C19.1135 46.1005 16.1779 49.0277 12.5566 49.0277H37.5319L37.5719 48.9685C37.8572 49.0063 38.1477 49.0277 38.4434 49.0277C42.0646 49.0277 45.0002 46.1005 45.0002 42.4895V37.9688H19.1135Z" fill="#90969B"/>
<rect x="2" y="2" width="46" height="52.25" rx="4" stroke="#D1D5DB" stroke-width="4"/>
</svg>
