<svg width="50" height="53" viewBox="0 0 50 53" fill="none" xmlns="http://www.w3.org/2000/svg">
<path d="M7.3457 42.0768L7.3451 42.0766C7.19139 42.0355 7.06029 41.9351 6.98063 41.7974C6.90097 41.6597 6.87927 41.4959 6.9203 41.3422L6.92032 41.3421C7.52141 39.0992 9.02275 37.6944 10.6862 36.7767C12.3467 35.8606 14.1759 35.4258 15.4451 35.1241L15.4468 35.1237L15.4468 35.1237C16.008 34.9905 16.4764 34.8778 16.707 34.7773L16.7071 34.7773C18.5271 33.9874 19.6429 32.7933 20.0494 31.2262C18.5662 29.8526 17.3235 27.9087 16.5176 25.7025C15.3458 24.3986 14.6649 22.9668 14.6649 21.754C14.6649 20.9214 14.9839 20.2555 15.6121 19.7775C15.9852 14.2515 20.0258 9.92627 24.9484 9.9L24.9503 9.89999V9.90001L25.0993 9.90201L25.0993 9.90201C30.1149 9.97376 34.14 14.4203 34.3962 20.0478C34.8264 20.5001 35.0419 21.0745 35.0419 21.753C35.0419 22.7818 34.5509 23.9714 33.6728 25.1172C32.8488 27.6676 31.4159 29.9475 29.6971 31.4422C30.1059 33.0023 31.2205 34.1917 33.0358 34.9803L33.0361 34.9804C33.1504 35.0306 33.3306 35.0832 33.5607 35.1398C33.7842 35.1948 34.0483 35.2521 34.334 35.3141L34.3531 35.3183L34.3531 35.3183L34.3563 35.319C35.616 35.5917 37.4319 35.9848 39.0805 36.8624C40.7331 37.742 42.2247 39.1122 42.8215 41.34C42.8215 41.34 42.8215 41.3401 42.8215 41.3401L42.7249 41.366C42.742 41.4294 42.7464 41.4956 42.7379 41.5607C42.7294 41.6259 42.7081 41.6887 42.6754 41.7456C42.6426 41.8025 42.5989 41.8524 42.5469 41.8925C42.4948 41.9325 42.4353 41.9619 42.3719 41.979C42.3085 41.9961 42.2423 42.0005 42.1772 41.992C42.112 41.9835 42.0492 41.9622 41.9923 41.9295C41.9354 41.8967 41.8855 41.853 41.8454 41.8009C41.8054 41.7489 41.776 41.6894 41.7589 41.626L7.3457 42.0768ZM7.3457 42.0768C7.49923 42.1168 7.66234 42.0947 7.79967 42.0152C7.93701 41.9358 8.0375 41.8054 8.07937 41.6524L8.07951 41.6519M7.3457 42.0768L8.07951 41.6519M8.07951 41.6519C8.58522 39.765 9.86515 38.5742 11.3374 37.7789C12.8122 36.9822 14.4715 36.5866 15.7241 36.2883L15.7247 36.2881C16.3473 36.1402 16.8526 36.0201 17.1845 35.8768L17.1847 35.8767M8.07951 41.6519L17.1847 35.8767M17.1847 35.8767C20.0695 34.6246 21.0169 32.6042 21.3001 31.1248L21.2019 31.106L17.1847 35.8767Z" fill="#00C1A3" stroke="#00C1A3" stroke-width="0.2"/>
<rect x="2" y="2" width="46" height="48.38" rx="4" stroke="#00C1A3" stroke-width="4"/>
</svg>
