<svg width="821" height="256" viewBox="0 0 821 256" fill="none" xmlns="http://www.w3.org/2000/svg">
<path d="M29.2 211.474C29.2 217.119 27.9347 222.229 25.404 226.804C22.9707 231.379 19.6613 234.931 15.476 237.462C11.388 239.993 7.008 241.258 2.336 241.258C7.39733 239.214 11.388 235.467 14.308 230.016C17.228 224.663 18.688 218.287 18.688 210.89V128.984C18.688 125.188 18.2013 122.317 17.228 120.37C16.2547 118.326 15.184 116.963 14.016 116.282C12.848 115.601 12.264 115.357 12.264 115.552H35.478C35.478 115.357 34.894 115.601 33.726 116.282C32.558 116.963 31.4873 118.326 30.514 120.37C29.638 122.317 29.2 125.188 29.2 128.984V211.474ZM51.3224 191.034C51.3224 185.973 52.5391 181.203 54.9724 176.726C57.5031 172.151 60.9584 168.501 65.3384 165.776C69.7184 163.051 74.5851 161.688 79.9384 161.688C85.0971 161.688 89.7691 162.905 93.9544 165.338C98.1398 167.674 101.4 170.886 103.736 174.974C106.17 179.062 107.386 183.539 107.386 188.406C107.386 193.467 106.121 198.285 103.59 202.86C101.157 207.337 97.7504 210.939 93.3704 213.664C88.9904 216.389 84.1238 217.752 78.7704 217.752C73.6118 217.752 68.9398 216.584 64.7544 214.248C60.5691 211.815 57.2598 208.554 54.8264 204.466C52.4904 200.378 51.3224 195.901 51.3224 191.034ZM96.8744 192.64C96.8744 188.552 96.0958 184.513 94.5384 180.522C92.9811 176.531 90.7911 173.271 87.9684 170.74C85.1458 168.209 81.8851 166.944 78.1864 166.944C73.0278 166.944 68.9884 168.891 66.0684 172.784C63.2458 176.677 61.8344 181.349 61.8344 186.8C61.8344 190.888 62.6131 194.927 64.1704 198.918C65.7278 202.909 67.9178 206.169 70.7404 208.7C73.5631 211.231 76.8238 212.496 80.5224 212.496C85.6811 212.496 89.6718 210.549 92.4944 206.656C95.4144 202.763 96.8744 198.091 96.8744 192.64ZM124.887 126.21C124.887 122.122 124.206 119.348 122.843 117.888C121.578 116.331 120.118 115.552 118.463 115.552H117.587L134.231 107.96V171.178C135.399 169.231 137.492 167.187 140.509 165.046C143.624 162.807 147.663 161.688 152.627 161.688C156.91 161.688 160.754 162.759 164.161 164.9C167.568 167.041 170.244 170.01 172.191 173.806C174.138 177.602 175.111 181.836 175.111 186.508C175.111 192.445 173.894 197.701 171.461 202.276C169.028 206.851 165.864 210.501 161.971 213.226C157.591 216.243 152.627 217.752 147.079 217.752C143.186 217.752 139.049 216.925 134.669 215.27C132.625 214.491 131.068 214.102 129.997 214.102C128.342 214.102 126.639 215.075 124.887 217.022V126.21ZM134.231 198.188C134.231 201.303 134.572 203.833 135.253 205.78C135.934 207.727 137.102 209.187 138.757 210.16C141.19 211.717 144.305 212.496 148.101 212.496C152.773 212.496 156.666 210.549 159.781 206.656C162.993 202.665 164.599 197.409 164.599 190.888C164.599 184.756 163.139 179.451 160.219 174.974C157.396 170.399 153.26 168.112 147.809 168.112C145.765 168.112 143.672 168.696 141.531 169.864C139.39 170.935 137.638 172.443 136.275 174.39C134.912 176.337 134.231 178.527 134.231 180.96V198.188Z" fill="#4C5863"/>
<path d="M311.143 207.094C307.444 210.111 302.626 212.642 296.689 214.686C290.752 216.73 284.766 217.752 278.731 217.752C269.679 217.752 261.26 215.659 253.473 211.474C245.686 207.289 239.408 201.254 234.639 193.37C229.967 185.486 227.631 176.239 227.631 165.63C227.631 155.702 229.772 146.796 234.055 138.912C238.435 131.028 244.616 124.896 252.597 120.516C260.676 116.039 270.068 113.8 280.775 113.8C292.163 113.8 302.286 116.282 311.143 121.246V137.452C308.126 132.099 303.746 127.865 298.003 124.75C292.26 121.538 286.128 119.932 279.607 119.932C271.334 119.932 264.131 121.879 257.999 125.772C251.964 129.665 247.341 135.019 244.129 141.832C240.917 148.548 239.311 156.091 239.311 164.462C239.311 173.903 241.112 182.128 244.713 189.136C248.412 196.144 253.376 201.546 259.605 205.342C265.834 209.041 272.794 210.89 280.483 210.89C292.844 210.89 303.064 207.289 311.143 200.086V207.094ZM342.11 170.302C344.251 167.771 346.879 165.727 349.994 164.17C353.109 162.515 356.369 161.688 359.776 161.688C365.032 161.688 369.217 163.391 372.332 166.798C375.544 170.107 377.15 174.925 377.15 181.252V201.546C377.15 205.634 377.588 208.749 378.464 210.89C379.34 213.031 380.313 214.491 381.384 215.27C382.455 216.049 382.99 216.292 382.99 216H361.966C361.966 216.292 362.501 216.097 363.572 215.416C364.643 214.637 365.616 213.177 366.492 211.036C367.368 208.895 367.806 205.683 367.806 201.4V184.756C367.806 181.447 367.368 178.819 366.492 176.872C365.616 174.925 364.448 173.319 362.988 172.054C360.749 170.205 358.073 169.28 354.958 169.28C351.454 169.28 348.437 170.448 345.906 172.784C343.375 175.023 342.11 178.186 342.11 182.274V201.4C342.11 205.585 342.548 208.749 343.424 210.89C344.3 213.031 345.273 214.491 346.344 215.27C347.512 216.049 348.096 216.292 348.096 216H327.072C327.072 216.292 327.607 216.097 328.678 215.416C329.749 214.637 330.673 213.177 331.452 211.036C332.328 208.797 332.766 205.585 332.766 201.4V126.21C332.766 122.122 332.085 119.348 330.722 117.888C329.457 116.331 327.997 115.552 326.342 115.552H325.466L342.11 107.96V170.302ZM419.909 217.752C414.653 217.752 410.127 216.487 406.331 213.956C402.535 211.328 399.615 207.97 397.571 203.882C395.624 199.697 394.651 195.268 394.651 190.596C394.651 184.561 395.819 179.354 398.155 174.974C400.588 170.594 403.703 167.285 407.499 165.046C411.295 162.807 415.237 161.688 419.325 161.688C425.165 161.688 430.177 163.829 434.363 168.112C438.645 172.297 440.981 178.137 441.371 185.632H403.411C403.411 190.304 404.287 194.441 406.039 198.042C407.791 201.546 410.127 204.271 413.047 206.218C416.064 208.067 419.325 208.992 422.829 208.992C431.978 208.992 438.159 206.072 441.371 200.232C440.495 205.488 438.11 209.722 434.217 212.934C430.323 216.146 425.554 217.752 419.909 217.752ZM418.303 166.506C414.507 166.506 411.246 167.869 408.521 170.594C405.795 173.222 404.141 176.677 403.557 180.96H430.129C430.129 176.483 428.912 172.979 426.479 170.448C424.143 167.82 421.417 166.506 418.303 166.506ZM478.95 217.752C473.694 217.752 469.07 216.487 465.08 213.956C461.186 211.425 458.218 208.067 456.174 203.882C454.13 199.697 453.108 195.268 453.108 190.596C453.108 185.729 454.13 181.106 456.174 176.726C458.315 172.249 461.381 168.647 465.372 165.922C469.362 163.099 474.083 161.688 479.534 161.688C486.055 161.688 490.776 163.099 493.696 165.922C496.616 168.745 498.66 171.713 499.828 174.828L490.192 179.5C489.608 175.996 488.148 173.027 485.812 170.594C483.573 168.161 480.799 166.944 477.49 166.944C472.72 166.944 469.022 168.793 466.394 172.492C463.766 176.191 462.452 180.717 462.452 186.07C462.452 189.866 463.279 193.565 464.934 197.166C466.686 200.67 469.119 203.541 472.234 205.78C475.446 208.019 479.193 209.138 483.476 209.138C486.98 209.138 490.289 208.359 493.404 206.802C496.616 205.147 499.146 202.957 500.996 200.232C499.925 205.683 497.394 209.965 493.404 213.08C489.413 216.195 484.595 217.752 478.95 217.752ZM517.405 126.21C517.405 122.122 516.723 119.348 515.361 117.888C514.095 116.331 512.635 115.552 510.981 115.552H510.105L526.749 107.96V187.384L541.349 174.974C543.49 173.125 545.291 171.324 546.751 169.572C548.211 167.82 548.941 166.555 548.941 165.776C548.941 164.997 548.697 164.413 548.211 164.024C547.724 163.537 547.237 163.245 546.751 163.148C546.264 162.953 545.923 162.856 545.729 162.856H566.753C566.461 162.953 565.633 163.391 564.271 164.17C562.908 164.949 560.815 166.36 557.993 168.404C555.17 170.448 551.763 173.125 547.773 176.434L536.969 185.34L554.343 203.298C558.139 207.191 561.156 209.917 563.395 211.474C565.731 212.934 567.434 213.664 568.505 213.664H569.089C567.629 214.637 565.877 215.416 563.833 216C561.789 216.584 560.037 216.876 558.577 216.876C556.727 216.876 554.878 216.195 553.029 214.832C551.277 213.372 549.038 211.182 546.313 208.262L544.123 206.072L526.749 187.822V201.4C526.749 205.683 527.187 208.895 528.063 211.036C529.036 213.177 530.058 214.637 531.129 215.416C532.297 216.097 532.881 216.292 532.881 216H511.857C511.857 216.292 512.343 216.097 513.317 215.416C514.387 214.637 515.312 213.177 516.091 211.036C516.967 208.797 517.405 205.585 517.405 201.4V126.21ZM617.78 126.21C617.78 122.122 617.098 119.348 615.736 117.888C614.47 116.331 613.01 115.552 611.356 115.552H610.48L627.124 107.96V201.4C627.124 205.683 627.562 208.895 628.438 211.036C629.314 213.177 630.287 214.637 631.358 215.416C632.428 216.097 632.964 216.292 632.964 216H611.94C611.94 216.292 612.475 216.097 613.546 215.416C614.616 214.637 615.59 213.177 616.466 211.036C617.342 208.797 617.78 205.585 617.78 201.4V126.21ZM650.43 179.354C650.43 175.266 649.749 172.492 648.386 171.032C647.121 169.475 645.661 168.696 644.006 168.696L659.774 161.688V201.4C659.774 205.683 660.212 208.895 661.088 211.036C661.964 213.177 662.937 214.637 664.008 215.416C665.079 216.097 665.614 216.292 665.614 216H644.59C644.59 216.292 645.125 216.097 646.196 215.416C647.267 214.637 648.24 213.177 649.116 211.036C649.992 208.895 650.43 205.683 650.43 201.4V179.354ZM654.956 144.022C652.815 144.022 651.111 143.341 649.846 141.978C648.678 140.518 648.094 138.863 648.094 137.014C648.094 135.165 648.678 133.559 649.846 132.196C651.111 130.736 652.815 130.006 654.956 130.006C657.097 130.006 658.752 130.736 659.92 132.196C661.185 133.559 661.818 135.165 661.818 137.014C661.818 138.863 661.185 140.518 659.92 141.978C658.752 143.341 657.097 144.022 654.956 144.022ZM696.366 217.752C693.446 217.752 690.429 217.265 687.314 216.292C684.2 215.319 681.62 214.053 679.576 212.496V199.648C681.426 204.223 683.908 207.532 687.022 209.576C690.234 211.523 693.69 212.496 697.388 212.496C700.406 212.496 702.839 211.669 704.688 210.014C706.635 208.359 707.608 206.559 707.608 204.612C707.608 202.471 706.635 200.67 704.688 199.21C702.742 197.75 699.773 196.095 695.782 194.246C690.624 191.813 686.633 189.428 683.81 187.092C680.988 184.756 679.576 181.593 679.576 177.602C679.576 173.222 681.231 169.475 684.54 166.36C687.85 163.245 692.181 161.688 697.534 161.688C701.233 161.688 704.445 162.126 707.17 163.002C709.896 163.878 711.94 164.851 713.302 165.922L710.966 176.872C709.798 173.563 707.852 171.081 705.126 169.426C702.401 167.771 699.53 166.944 696.512 166.944C693.884 166.944 691.694 167.723 689.942 169.28C688.288 170.837 687.46 172.589 687.46 174.536C687.46 177.164 688.482 179.257 690.526 180.814C692.668 182.371 695.88 184.075 700.162 185.924C705.224 188.065 709.068 190.255 711.696 192.494C714.422 194.635 715.784 197.701 715.784 201.692C715.784 204.515 715.006 207.143 713.448 209.576C711.891 212.009 709.604 214.005 706.586 215.562C703.666 217.022 700.26 217.752 696.366 217.752ZM747.722 217.752C742.953 217.752 739.351 216.146 736.918 212.934C734.485 209.625 733.268 205.683 733.268 201.108V168.696H725.092L742.612 148.84V162.856H761.3V168.696H742.612V199.502C742.612 203.201 743.585 206.023 745.532 207.97C747.479 209.819 749.717 210.744 752.248 210.744C754.195 210.744 756.093 210.16 757.942 208.992C759.791 207.824 761.3 206.218 762.468 204.174C761.008 213.226 756.093 217.752 747.722 217.752Z" fill="#00C1A3"/>
<path d="M588 252H811C814.314 252 817 249.314 817 246V10C817 6.68629 814.314 4 811 4H594C590.686 4 588 6.68629 588 10V142" stroke="#00C1A3" stroke-width="8" stroke-linecap="round" stroke-linejoin="round"/>
<path d="M789.5 111.438V100.312H699.778V111.438H789.5ZM789.5 78.0625V66.9375H699.778V78.0625H744.639H789.5ZM677.556 66.9375V78.0625H688.667V66.9375H677.556ZM672 66.9375C672 65.4622 672.585 64.0474 673.627 63.0042C674.669 61.961 676.082 61.375 677.556 61.375H688.667C690.14 61.375 691.553 61.961 692.595 63.0042C693.637 64.0474 694.222 65.4622 694.222 66.9375V78.0625C694.222 79.5378 693.637 80.9526 692.595 81.9958C691.553 83.039 690.14 83.625 688.667 83.625H677.556C676.082 83.625 674.669 83.039 673.627 81.9958C672.585 80.9526 672 79.5378 672 78.0625V66.9375ZM677.556 100.312V111.438H688.667V100.312H677.556ZM672 100.312C672 98.8372 672.585 97.4224 673.627 96.3792C674.669 95.336 676.082 94.75 677.556 94.75H688.667C690.14 94.75 691.553 95.336 692.595 96.3792C693.637 97.4224 694.222 98.8372 694.222 100.312V111.438C694.222 112.913 693.637 114.328 692.595 115.371C691.553 116.414 690.14 117 688.667 117H677.556C676.082 117 674.669 116.414 673.627 115.371C672.585 114.328 672 112.913 672 111.438V100.312Z" fill="#4C5863" fill-opacity="0.5"/>
<path d="M699.778 43.6875H789.5V32.5625H699.778V43.6875ZM677.556 32.5625V43.6875H688.667V32.5625H677.556ZM672 32.5625C672 31.0872 672.585 29.6724 673.627 28.6292C674.669 27.586 676.082 27 677.556 27H688.667C690.14 27 691.553 27.586 692.595 28.6292C693.637 29.6724 694.222 31.0872 694.222 32.5625V43.6875C694.222 45.1628 693.637 46.5776 692.595 47.6208C691.553 48.664 690.14 49.25 688.667 49.25H677.556C676.082 49.25 674.669 48.664 673.627 47.6208C672.585 46.5776 672 45.1628 672 43.6875V32.5625Z" fill="#00C1A3" fill-opacity="0.5"/>
<path d="M702.063 12.2653C697.427 16.2082 693.504 19.9615 689.914 24.8585C688.33 27.0183 686.569 29.5605 685.418 31.9607C684.761 33.2334 683.576 35.2221 683.172 37.1341C680.963 35.1146 678.591 32.8225 676.163 31.0271C674.433 29.7479 669.449 32.3559 671.478 33.856C675.113 36.5434 678.137 39.8906 681.674 42.6979C683.153 43.8707 686.431 41.3237 687.201 40.2551C689.73 36.7345 690.076 32.431 691.919 28.5907C694.733 22.7175 699.723 17.8929 704.65 13.7033C707.915 10.7113 704.543 10.1595 702.068 12.2653" fill="#00C1A3"/>
</svg>
