<svg width="50" height="57" viewBox="0 0 50 57" fill="none" xmlns="http://www.w3.org/2000/svg">
<path d="M34.6819 11.1699H10.7016C9.8967 11.1699 9.24414 11.8206 9.24414 12.6233V39.8507L9.24549 39.852C9.27437 42.7403 11.6303 45.0732 14.5337 45.0732H34.6819C35.4868 45.0732 36.1394 44.4225 36.1394 43.6198V12.6233C36.1394 11.8206 35.4869 11.1699 34.6819 11.1699Z" fill="#00C1A3"/>
<path d="M25.1398 16.2843H12.6076C12.4661 16.2843 12.3304 16.2283 12.2304 16.1286C12.1304 16.0288 12.0742 15.8936 12.0742 15.7525C12.0742 15.6115 12.1304 15.4762 12.2304 15.3765C12.3304 15.2767 12.4661 15.2207 12.6076 15.2207H25.1398C25.2812 15.2207 25.4169 15.2767 25.5169 15.3765C25.6169 15.4762 25.6731 15.6115 25.6731 15.7525C25.6731 15.8936 25.6169 16.0288 25.5169 16.1286C25.4169 16.2283 25.2812 16.2843 25.1398 16.2843ZM23.7501 19.4124C23.7501 19.2714 23.6939 19.1361 23.5938 19.0364C23.4938 18.9366 23.3582 18.8806 23.2167 18.8806H12.6076C12.4661 18.8806 12.3304 18.9366 12.2304 19.0364C12.1304 19.1361 12.0742 19.2714 12.0742 19.4124C12.0742 19.5535 12.1304 19.6887 12.2304 19.7885C12.3304 19.8882 12.4661 19.9442 12.6076 19.9442H23.2168C23.2868 19.9442 23.3562 19.9305 23.4209 19.9037C23.4856 19.877 23.5444 19.8378 23.5939 19.7885C23.6434 19.7391 23.6827 19.6804 23.7095 19.6159C23.7363 19.5514 23.7501 19.4822 23.7501 19.4124ZM32.0679 23.0723C32.0679 22.9312 32.0117 22.796 31.9117 22.6962C31.8116 22.5965 31.676 22.5405 31.5345 22.5405H12.6076C12.4661 22.5405 12.3304 22.5965 12.2304 22.6962C12.1304 22.796 12.0742 22.9312 12.0742 23.0723C12.0742 23.2133 12.1304 23.3486 12.2304 23.4483C12.3304 23.5481 12.4661 23.6041 12.6076 23.6041H31.5346C31.676 23.6041 31.8117 23.5481 31.9117 23.4483C32.0117 23.3486 32.0679 23.2133 32.0679 23.0723ZM30.8801 26.7321C30.8801 26.5911 30.824 26.4558 30.7239 26.3561C30.6239 26.2563 30.4883 26.2003 30.3468 26.2003H12.6076C12.4661 26.2003 12.3304 26.2563 12.2304 26.3561C12.1304 26.4558 12.0742 26.5911 12.0742 26.7321C12.0742 26.8732 12.1304 27.0084 12.2304 27.1082C12.3304 27.2079 12.4661 27.2639 12.6076 27.2639H30.3468C30.4883 27.2639 30.6239 27.2079 30.7239 27.1082C30.824 27.0084 30.8801 26.8732 30.8801 26.7321ZM23.7501 30.392C23.7501 30.251 23.6939 30.1157 23.5938 30.0159C23.4938 29.9162 23.3582 29.8602 23.2167 29.8602H12.6076C12.4661 29.8602 12.3304 29.9162 12.2304 30.0159C12.1304 30.1157 12.0742 30.251 12.0742 30.392C12.0742 30.533 12.1304 30.6683 12.2304 30.7681C12.3304 30.8678 12.4661 30.9238 12.6076 30.9238H23.2168C23.2868 30.9238 23.3562 30.9101 23.4209 30.8834C23.4856 30.8566 23.5444 30.8175 23.5939 30.7681C23.6434 30.7187 23.6827 30.66 23.7095 30.5955C23.7363 30.531 23.7501 30.4618 23.7501 30.392ZM32.0679 34.0519C32.0679 33.9108 32.0117 33.7756 31.9117 33.6758C31.8116 33.5761 31.676 33.5201 31.5345 33.5201H12.6076C12.4661 33.5201 12.3304 33.5761 12.2304 33.6758C12.1304 33.7756 12.0742 33.9108 12.0742 34.0519C12.0742 34.1929 12.1304 34.3282 12.2304 34.4279C12.3304 34.5277 12.4661 34.5837 12.6076 34.5837H31.5346C31.676 34.5837 31.8117 34.5276 31.9117 34.4279C32.0117 34.3282 32.0679 34.1929 32.0679 34.0519ZM32.0679 37.7118C32.0679 37.5707 32.0117 37.4355 31.9117 37.3357C31.8116 37.236 31.676 37.18 31.5345 37.18H12.6076C12.4661 37.18 12.3304 37.236 12.2304 37.3357C12.1304 37.4355 12.0742 37.5707 12.0742 37.7118C12.0742 37.8528 12.1304 37.9881 12.2304 38.0878C12.3304 38.1876 12.4661 38.2436 12.6076 38.2436H31.5346C31.676 38.2436 31.8117 38.1875 31.9117 38.0878C32.0117 37.9881 32.0679 37.8528 32.0679 37.7118ZM32.0679 41.3716C32.0679 41.2305 32.0117 41.0953 31.9117 40.9955C31.8116 40.8958 31.676 40.8398 31.5345 40.8398H12.6076C12.4661 40.8398 12.3304 40.8958 12.2304 40.9955C12.1304 41.0953 12.0742 41.2305 12.0742 41.3716C12.0742 41.5126 12.1304 41.6479 12.2304 41.7476C12.3304 41.8474 12.4661 41.9034 12.6076 41.9034H31.5346C31.676 41.9034 31.8117 41.8474 31.9117 41.7476C32.0117 41.6479 32.0679 41.5126 32.0679 41.3716Z" fill="#ECFFFC"/>
<path d="M19.8227 36.1523V39.7994C19.8227 42.7124 17.4545 45.0739 14.5332 45.0739H34.6814L34.7136 45.0261C34.9438 45.0566 35.1781 45.0739 35.4167 45.0739C38.338 45.0739 40.7062 42.7124 40.7062 39.7994V36.1523H19.8227Z" fill="#90969B"/>
<rect x="2" y="2" width="46" height="52.25" rx="4" stroke="#00C1A3" stroke-width="4"/>
</svg>
